inDegrees=yes
name=ik_OwnShooting_orientations2.mot
DataType=double
version=3
OpenSimVersion=4.3-2021-08-27-4bc7ad9
endheader
time	pelvis_tilt	pelvis_list	pelvis_rotation	pelvis_tx	pelvis_ty	pelvis_tz	hip_flexion_r	hip_adduction_r	hip_rotation_r	knee_angle_r	knee_angle_r_beta	ankle_angle_r	subtalar_angle_r	mtp_angle_r	hip_flexion_l	hip_adduction_l	hip_rotation_l	knee_angle_l	knee_angle_l_beta	ankle_angle_l	subtalar_angle_l	mtp_angle_l	lumbar_extension	lumbar_bending	lumbar_rotation	arm_flex_r	arm_add_r	arm_rot_r	elbow_flex_r	pro_sup_r	wrist_flex_r	wrist_dev_r	arm_flex_l	arm_add_l	arm_rot_l	elbow_flex_l	pro_sup_l	wrist_flex_l	wrist_dev_l
9.130000000000001	2.031935053695758	-1.884327831353234	149.1770262224869	0	0.9399999999999999	0	44.98410721616988	-10.00000017810608	0	59.99040422996338	1.047030073415194	-4.999999844358577	0	0	44.98410721616988	-10.00000017810608	0	59.99040422996338	1.047030073415194	-4.999999844358577	0	0	-6.262542401465798	-16.06328355115173	1.616458711733525	-89.99304326269441	-26.19554787650092	-89.93681838806562	136.4875906416304	45.00000644067035	0	0	0	-14.7554148586716	0	75.01335126670251	45.00000644067035	0	0
9.140000000000001	2.027975994558215	-1.875647866215702	149.1801553140836	0	0.9399999999999999	0	44.98416936172249	-10.000000176226	0	59.99044117028163	1.047030718145375	-4.999999844439264	0	0	44.98416936172249	-10.000000176226	0	59.99044117028163	1.047030718145375	-4.999999844439264	0	0	-3.071897599368263	-20.69786433586112	1.642666610764302	-89.99158731460115	-34.74049429667165	-89.97371827859753	130.1296350966265	45.00000638904406	0	0	0	-14.75598569115059	0	75.01329974742316	45.00000638904406	0	0
9.15	2.021777827768453	-1.877335359249776	149.1857242032018	0	0.9399999999999999	0	44.98424305938949	-10.00000017385359	0	59.99048326801344	1.047031452889402	-4.999999844542447	0	0	44.98424305938949	-10.00000017385359	0	59.99048326801344	1.047031452889402	-4.999999844542447	0	0	0.4284294080430564	-25.32652733715563	1.98835790171013	-89.98916157421823	-42.9600796715322	-89.98356451260739	123.521586520166	45.0000063246796	0	0	0	-14.7566442085782	0	75.01323865133929	45.0000063246796	0	0
9.16	2.019461043317311	-1.876419073251399	149.1902974481241	0	0.9399999999999999	0	44.98425986240103	-10.00000017316846	0	59.99049136032268	1.047031594126843	-4.999999844573728	0	0	44.98425986240103	-10.00000017316846	0	59.99049136032268	1.047031594126843	-4.999999844573728	0	0	4.192790333642742	-29.51340988306558	2.746298607269477	-89.98460398151448	-48.97647515299801	-89.9884083997718	118.8860220717734	45.00000630688839	0	0	0	-14.75677721881593	0	75.01322472149121	45.00000630688839	0	0
9.17	1.999392460090736	-1.870960810602103	149.1857510221443	0	0.9399999999999999	0	44.98426588527807	-10.00000017292107	0	59.99049425151913	1.04703164458774	-4.999999844585048	0	0	44.98426588527807	-10.00000017292107	0	59.99049425151913	1.04703164458774	-4.999999844585048	0	0	8.167875941562469	-32.99984947343932	3.842632400886347	-89.97261658316651	-53.3871855346375	-89.9910885650816	115.2808182827467	45.00000630047536	0	0	0	-14.75682478497534	0	75.01321972847197	45.00000630047536	0	0
9.18	2.005700614336947	-1.871415319738501	149.2021224686085	0	0.9399999999999999	0	44.98431113173714	-10.00000017152212	0	59.99052083304535	1.047032108522893	-4.999999844645407	0	0	44.98431113173714	-10.00000017152212	0	59.99052083304535	1.047032108522893	-4.999999844645407	0	0	11.29018469527061	-34.914662612317	4.84446936119455	-89.93164021596664	-57.43180878811489	-89.99198463501344	111.2210041678228	45.00000626223889	0	0	0	-14.75723701781564	0	75.01318221871115	45.00000626223889	0	0
9.19	2.002494088485972	-1.868009996566461	149.218014580275	0	0.9399999999999999	0	44.984357398759	-10.0000001700756	0	59.9905479753572	1.047032582245601	-4.999999844708048	0	0	44.984357398759	-10.0000001700756	0	59.9905479753572	1.047032582245601	-4.999999844708048	0	0	12.99793122636071	-36.64277520459764	5.33017653809041	-89.69842661996442	-61.53325749675221	-89.99205504462826	106.7607217980372	45.00000622281324	0	0	0	-14.75765736979696	0	75.01314386289472	45.00000622281324	0	0
9.199999999999999	2.004199385043387	-1.876228090784086	149.193439340128	0	0.9399999999999999	0	44.98436341029007	-10.00000016983131	0	59.99055086275683	1.047032632640231	-4.999999844719182	0	0	44.98436341029007	-10.00000016983131	0	59.99055086275683	1.047032632640231	-4.999999844719182	0	0	12.70744660000177	-37.38610706729374	5.369187352370298	-89.84710810315227	-62.20912764126189	-89.9918731726048	104.5226480710404	45.00000621646236	0	0	0	-14.75770497727709	0	75.01313887928123	45.00000621646236	0	0
9.210000000000001	2.017870702485845	-1.882968052152102	149.1904386632672	0	0.9399999999999999	0	44.98436943625222	-10.00000016958667	0	59.99055375679661	1.047032683150754	-4.999999844730331	0	0	44.98436943625222	-10.00000016958667	0	59.99055375679661	1.047032683150754	-4.999999844730331	0	0	10.86265881594031	-37.7057926523166	4.746065747733393	-89.9500288044599	-60.16417236404897	-89.99172522490259	104.8551915626642	45.00000621010028	0	0	0	-14.75775270213414	0	75.01313388370428	45.00000621010028	0	0
9.220000000000001	2.008936143779302	-1.878990205196378	149.1925247712711	0	0.9399999999999999	0	44.9845785295575	-10.0000001628805	0	59.99065899524209	1.047034519908128	-4.999999845013044	0	0	44.9845785295575	-10.0000001628805	0	59.99065899524209	1.047034519908128	-4.999999845013044	0	0	8.514489940428733	-38.56815113239889	3.853478120025684	-89.97268506961285	-59.59686038101836	-89.99107526588523	103.4109337660666	45.00000602494728	0	0	0	-14.75951353280755	0	75.01296054337269	45.00000602494728	0	0
